# xmcd
#
# Track frame offsets: 
#        150
#        34579
#        41611
#        63432
#        70314
#        99689
#        122708
#        143597
#
# Disc length: 2217 seconds
#
# Revision: 0
# Processed by: cddbd v1.5.2PL0 Copyright (c) Steve Scherf et al.
# Submitted via: ExactAudioCopy v1.0b3
#
DISCID=6d08a708
DTITLE=茅原実里（Music Road） - minorecorder
DYEAR=1900
DGENRE=
TTITLE0=Contact ～ 詩人の旅 -リコーダーのための-
TTITLE1=SELF PRODUCER（TV Anime Size）
TTITLE2=純白サンクチュアリィ
TTITLE3=TERMINATED（TV Anime Size）
TTITLE4=ひとひらの願い
TTITLE5=Voyager train
TTITLE6=Lush March!! -for recorders-
TTITLE7=一等星 -リコーダーのための-
EXTD=
EXTT0=
EXTT1=
EXTT2=
EXTT3=
EXTT4=
EXTT5=
EXTT6=
EXTT7=
PLAYORDER=
